Coordinates
version=1
nRows=7
nColumns=33
inDegrees=yes

Units are S.I. units (second, meters, Newtons, ...)
Angles are in degrees.

endheader
time	ground_thorax_rot_x	ground_thorax_rot_y	ground_thorax_rot_z	ground_thorax_tx	ground_thorax_ty	ground_thorax_tz	clav_prot_r	clav_elev_r	scapula_abduction_r	scapula_elevation_r	scapula_upward_rot_r	scapula_winging_r	shoulder_elv_r	plane_of_elev_r	axial_rot_r	elbow_flexion_r	pro_sup_r	wrist_flex_r	wrist_dev_r	clav_prot_l	clav_elev_l	scapula_abduction_l	scapula_elevation_l	scapula_upward_rot_l	scapula_winging_l	shoulder_elv_l	plane_of_elev_l	axial_rot_l	elbow_flexion_l	pro_sup_l	wrist_flex_l	wrist_dev_l
      5.68000000	     37.03570315	     11.61512987	     17.63133592	   -151.12019584	    795.79220314	      4.73411283	     15.95570720	     37.36301042	     40.02564828	     45.00000000	    -43.75622862	   2078.65477304	  -3708.51116141	    142.19095335	    179.99999979	   1810.94114007	     42.48867728	     22.46630203	     13.81943866	      7.34474912	    -45.00000000	    -38.37356409	     45.00000000	    -45.00000000	  -2430.10520803	   -453.39811615	    134.06838986	   -179.99999979	    368.92750001	     26.94551877	     10.63565711	    -20.23828094
      5.69000000	     36.97940814	     11.85135402	     17.83931789	   -147.24420640	    793.39980867	      4.82299009	     15.93204740	     37.45484624	     39.98371107	     45.00000000	    -43.42287882	   2078.97278478	  -3708.85844784	    142.32991400	    179.99999979	   1810.70015280	     42.77828203	     22.39899136	     14.03777758	      7.36848835	    -45.00000000	    -38.34852259	     45.00000000	    -45.00000000	  -2430.48519348	   -453.58104550	    134.05249010	   -179.99999979	    368.81996561	     27.45756403	     10.73180740	    -20.19794054
      5.70000000	     37.00666942	     12.05766971	     17.99346707	   -143.37398891	    791.03123406	      4.93282367	     15.29406086	     37.29691890	     39.89684426	     45.00000000	    -42.90971764	   2079.26473784	  -3709.15648042	    142.48210984	    179.99999979	   1810.50045783	     43.07555034	     22.35405986	     14.27099119	      7.75602995	    -45.00000000	    -38.37620637	     45.00000000	    -45.00000000	  -2430.66630812	   -453.96999444	    133.75995747	   -179.99999979	    368.45594342	     28.03668690	     10.91585397	    -20.12299422
      5.71000000	     37.01863474	     12.14226683	     18.18659612	   -139.51573881	    788.70184524	      5.05951018	     15.95890467	     37.53987222	     40.15298337	     45.00000000	    -42.92657866	   2079.42826172	  -3709.48707174	    142.40627987	    179.99999979	   1810.24156777	     43.43943390	     22.25395829	     14.38893731	      7.34016388	    -45.00000000	    -38.29007008	     45.00000000	    -45.00000000	  -2431.17589934	   -454.23741425	    134.01503589	   -179.99999979	    368.38349405	     28.61922217	     10.93865762	    -20.13483550
      5.72000000	     37.03558438	     12.30475848	     18.31757348	   -135.66882387	    786.42553988	      5.19813567	     16.69154068	     37.76667422	     40.37789474	     45.00000000	    -42.89584188	   2079.71123386	  -3709.78278299	    142.59873667	    179.99999979	   1810.06967779	     43.83975548	     22.18794367	     14.46246746	      6.82448569	    -45.00000000	    -38.20555472	     45.00000000	    -45.00000000	  -2431.75674961	   -454.40422136	    134.18093327	   -179.99999979	    368.18254887	     29.27493607	     10.99711747	    -20.13739391
      5.73000000	     36.99965821	     12.67691306	     18.46999015	   -131.83941796	    784.22431132	      5.34004449	     15.51695256	     37.47432801	     40.02384724	     45.00000000	    -42.35404617	   2080.03140223	  -3710.05788921	    142.74404405	    179.99999979	   1809.81467713	     44.14927164	     22.14471580	     14.67147632	      7.64904348	    -45.00000000	    -38.37601297	     45.00000000	    -45.00000000	  -2431.83116917	   -454.73349880	    133.78610939	   -179.99999979	    367.79942105	     29.85812107	     11.16414718	    -20.09526300
      5.74000000	     37.11788036	     12.69308556	     18.58029863	   -128.03378558	    782.11463851	      5.47980982	     16.56255488	     37.88058533	     40.47554226	     45.00000000	    -42.38738755	   2080.07637202	  -3710.44910408	    142.67652255	    179.99999979	   1809.48378290	     44.56546092	     22.01960718	     14.70048317	      6.96407366	    -45.00000000	    -38.23430409	     45.00000000	    -45.00000000	  -2432.46128089	   -455.00280954	    134.18394207	   -179.99999979	    367.78307394	     30.42240587	     11.11156113	    -20.16249970
